<svg width="170" height="171" viewBox="0 0 170 171" fill="none" xmlns="http://www.w3.org/2000/svg">
<path d="M101.825 8.09659C101.645 9.65087 100.987 10.8779 99.8509 11.7776C98.7151 12.6772 97.3739 13.0374 95.8275 12.858L86.419 11.7663C86.8355 8.17648 87.0437 6.38155 87.0437 6.38155C87.0437 6.38155 87.2525 4.58269 87.6699 0.984945L97.0784 2.07658C98.6248 2.256 99.8479 2.91365 100.748 4.04952C101.647 5.18539 102.006 6.53441 101.825 8.09659ZM99.0204 7.77116C99.112 6.98218 98.9476 6.33142 98.5273 5.81889C98.1158 5.29938 97.5165 4.98597 96.7293 4.87865L90.1611 4.11657L89.5624 9.27648L96.1307 10.0386C96.9215 10.1143 97.5757 9.95435 98.0934 9.55865C98.619 9.16385 98.928 8.56802 99.0204 7.77116Z" fill="#FFF2CA"/>
<path d="M105.955 15.1311L103.219 14.3844L106.084 3.89082L108.82 4.63756L105.955 15.1311Z" fill="#FFF2CA"/>
<path d="M123.445 18.5143C123.045 19.4055 122.414 20.0147 121.553 20.3419C120.692 20.6691 119.819 20.6341 118.936 20.237L109.155 15.8429L110.317 13.2564L120.076 17.6407C120.445 17.8067 120.71 17.7122 120.869 17.3572C121.029 17.0022 120.924 16.7417 120.554 16.5757L113.229 13.285C112.353 12.8912 111.747 12.2621 111.413 11.3979C111.078 10.5336 111.115 9.64865 111.521 8.743C111.922 7.85185 112.554 7.24792 113.419 6.93122C114.288 6.60727 115.16 6.64222 116.037 7.03606L125.829 11.4351L124.671 14.0107L114.901 9.62148C114.532 9.45548 114.267 9.54999 114.108 9.905C113.939 10.2817 114.039 10.5531 114.408 10.7191L121.733 14.0098C122.617 14.4069 123.223 15.036 123.55 15.897C123.88 16.7507 123.845 17.6232 123.445 18.5143Z" fill="#FFF2CA"/>
<path d="M141.659 22.7393L139.936 24.9765L132.979 19.6192C132.356 19.1394 131.71 18.9429 131.042 19.0298C130.378 19.1103 129.804 19.4652 129.32 20.0945C128.84 20.7175 128.646 21.3601 128.738 22.0221C128.829 22.6842 129.187 23.2551 129.81 23.7348L136.766 29.0921L135.036 31.3387L128.079 25.9814C126.84 25.0268 126.123 23.8285 125.93 22.3868C125.737 20.945 126.118 19.6042 127.073 18.3645C128.033 17.1185 129.234 16.4045 130.677 16.2227C132.12 16.0409 133.462 16.4273 134.702 17.382L141.659 22.7393Z" fill="#FFF2CA"/>
<path d="M152.097 43.1777C150.871 44.1488 149.537 44.5506 148.098 44.3832C146.659 44.2157 145.454 43.5185 144.482 42.2916L140.475 37.2284C139.504 36.0016 139.099 34.6654 139.262 33.2198C139.424 31.7743 140.119 30.5659 141.346 29.5948C142.579 28.6188 143.918 28.2176 145.362 28.3913C146.806 28.565 148.014 29.2652 148.985 30.4921L152.993 35.5553C153.964 36.7822 154.366 38.1153 154.198 39.5546C154.031 40.9939 153.33 42.2016 152.097 43.1777ZM150.345 40.9637C150.968 40.4707 151.312 39.8944 151.377 39.2349C151.454 38.5766 151.249 37.928 150.764 37.2891L146.771 32.2446C146.261 31.6255 145.676 31.2776 145.018 31.201C144.366 31.1195 143.729 31.3252 143.106 31.8181C142.477 32.316 142.127 32.8917 142.057 33.545C141.986 34.1984 142.2 34.8396 142.698 35.4686L146.691 40.5131C147.189 41.1421 147.764 41.4974 148.416 41.5789C149.073 41.6666 149.716 41.4616 150.345 40.9637Z" fill="#FFF2CA"/>
<path d="M165.635 59.3866L152.599 56.7278L151.973 55.2979L158.868 43.9197L160.267 47.1179L155.868 54.4521L164.236 56.1884L165.635 59.3866Z" fill="#FFF2CA"/>
<path d="M158.684 80.4962L156.214 65.8219L166.918 64.0205L169.387 78.6948L166.603 79.1634L164.604 67.2854L163.417 67.4851L164.975 76.7432L162.191 77.2118L160.633 67.9537L159.481 68.1475L161.48 80.0256L158.684 80.4962Z" fill="#FFF2CA"/>
<path d="M164.48 98.9837C162.911 98.8697 161.82 98.002 161.205 96.3805L157.748 97.7659L157.977 94.6051L160.77 93.4821C160.776 93.4028 160.941 91.1332 161.265 86.6732L158.591 86.479L158.797 83.6509L169.646 84.4391L168.96 93.8858C168.858 95.2801 168.446 96.4646 167.722 97.4393C166.892 98.5656 165.811 99.0803 164.48 98.9837ZM164.685 96.1674C165.112 96.1985 165.47 95.8821 165.757 95.218C165.96 94.7231 166.081 94.2103 166.12 93.6795L166.6 87.0608L164.093 86.8787L163.614 93.4736C163.574 94.0202 163.623 94.5534 163.761 95.073C163.941 95.771 164.249 96.1358 164.685 96.1674Z" fill="#FFF2CA"/>
<path d="M155.372 127.295L157.973 121.856L150.729 118.392L151.947 115.845L159.191 119.309L161.792 113.87L164.361 115.099L157.941 128.523L155.372 127.295Z" fill="#FFF2CA"/>
<path d="M137.525 137.423L139.295 135.223L141.384 136.903L147.164 129.719L145.076 128.038L146.853 125.829L155.328 132.648L153.551 134.857L149.374 131.496L143.593 138.681L147.77 142.042L146 144.242L137.525 137.423Z" fill="#FFF2CA"/>
<path d="M123.918 148.274L135.721 139.212L142.33 147.821L130.527 156.883L128.808 154.643L138.362 147.308L137.629 146.354L130.182 152.071L128.463 149.831L135.909 144.114L135.198 143.188L125.644 150.523L123.918 148.274Z" fill="#FFF2CA"/>
<path d="M100.095 165.983L109.164 163.376C109.904 163.163 110.44 162.77 110.771 162.195C111.104 161.628 111.172 160.976 110.977 160.239L101.954 162.833L101.164 160.085L110.187 157.491L109.453 154.938L112.178 154.154L113.676 159.364C114.11 160.876 113.977 162.265 113.275 163.533C112.573 164.801 111.463 165.653 109.944 166.09L100.875 168.696L100.095 165.983Z" fill="#FFF2CA"/>
<path d="M80.9602 159.257L83.7803 159.115L83.8108 159.722C84.6551 159.274 85.5056 159.028 86.3624 158.985L90.3842 158.783C91.947 158.704 93.2695 159.147 94.3519 160.11C95.4342 161.074 96.0151 162.345 96.0946 163.923L96.3677 169.349L93.5358 169.492L93.2638 164.09C93.2235 163.288 92.9576 162.665 92.466 162.221C91.9744 161.777 91.328 161.574 90.5268 161.615L86.5287 161.816C85.7355 161.856 85.1166 162.122 84.6721 162.613C84.2197 163.105 84.0133 163.744 84.0528 164.529L84.326 169.955L81.5059 170.097L80.9602 159.257Z" fill="#FFF2CA"/>
<path d="M63.3892 164.392L69.3239 165.452L70.7354 157.547L73.515 158.043L72.1036 165.948L78.0382 167.008L77.5377 169.811L62.8887 167.195L63.3892 164.392Z" fill="#FFF2CA"/>
<path d="M48.8838 149.889L51.4738 151.014L51.2318 151.571C52.1872 151.544 53.0584 151.702 53.8452 152.043L57.5389 153.647C58.9742 154.271 59.9629 155.254 60.505 156.598C61.0472 157.942 61.0035 159.339 60.3739 160.788L58.21 165.772L55.6091 164.642L57.7635 159.681C58.0831 158.945 58.1212 158.269 57.878 157.652C57.6349 157.036 57.1454 156.568 56.4095 156.248L52.7376 154.654C52.0091 154.337 51.3366 154.301 50.7201 154.544C50.0963 154.784 49.6278 155.265 49.3146 155.986L47.1507 160.969L44.5607 159.845L48.8838 149.889Z" fill="#FFF2CA"/>
<path d="M30.5438 144.808C31.4955 143.556 32.8184 143.115 34.5126 143.485L35.2391 139.832L37.7621 141.75L37.1784 144.703C37.2416 144.751 39.0533 146.128 42.6133 148.834L44.2355 146.7L46.4929 148.416L39.9106 157.076L32.3699 151.344C31.257 150.498 30.4898 149.506 30.0682 148.367C29.5778 147.057 29.7363 145.87 30.5438 144.808ZM32.7918 146.517C32.5322 146.858 32.6023 147.331 33.0019 147.934C33.3056 148.374 33.6694 148.755 34.093 149.077L39.3762 153.093L40.8974 151.092L35.6332 147.09C35.1969 146.759 34.7235 146.509 34.2131 146.34C33.5299 146.11 33.0561 146.169 32.7918 146.517Z" fill="#FFF2CA"/>
<path d="M23.4235 126.108L32.8074 137.657L24.3839 144.501L14.9999 132.952L17.1913 131.172L24.7872 140.52L25.7211 139.761L19.8007 132.475L21.9921 130.694L27.9125 137.981L28.8186 137.244L21.2228 127.896L23.4235 126.108Z" fill="#FFF2CA"/>
<path d="M7.09066 99.9825C8.59079 99.5375 9.97768 99.6606 11.2513 100.352C12.525 101.042 13.3843 102.138 13.8292 103.638L15.6654 109.829C16.1103 111.329 15.9885 112.72 15.2998 114.001C14.611 115.282 13.5166 116.145 12.0165 116.59C10.5088 117.038 9.11695 116.912 7.84102 116.213C6.5651 115.515 5.70468 114.415 5.25975 112.915L3.42356 106.724C2.97863 105.224 3.10165 103.837 3.79261 102.564C4.48358 101.29 5.58293 100.43 7.09066 99.9825ZM7.89357 102.69C7.13209 102.915 6.59827 103.322 6.29212 103.91C5.9761 104.493 5.92453 105.171 6.13741 105.944L7.96682 112.112C8.21016 112.877 8.62309 113.417 9.20562 113.733C9.78054 114.052 10.4487 114.098 11.2102 113.872C11.9793 113.644 12.5181 113.24 12.8265 112.659C13.1349 112.079 13.175 111.404 12.9469 110.635L11.1175 104.467C10.8894 103.698 10.4879 103.155 9.91297 102.836C9.3358 102.51 8.66267 102.461 7.89357 102.69Z" fill="#FFF2CA"/>
<path d="M3.3722 81.1814L3.84984 93.217L6.36173 93.1173L5.98944 83.7364L8.84657 83.6231L9.21886 93.004L11.8736 92.8986L11.986 95.7319L1.14087 96.1623L0.550784 81.2934L3.3722 81.1814Z" fill="#FFF2CA"/>
<path d="M14.9641 53.1632C15.9759 53.5182 16.6396 54.2055 16.9552 55.2253C17.2398 56.1417 17.1994 57.1207 16.8339 58.1625L13.2646 68.3368L3.02282 64.7438L6.59214 54.5695C6.95762 53.5277 7.53395 52.7367 8.32113 52.1963C9.21968 51.6025 10.1674 51.4804 11.1642 51.8301C11.9062 52.0904 12.4683 52.5275 12.8506 53.1414C13.5251 52.8983 14.2296 52.9055 14.9641 53.1632ZM10.2295 54.4946C9.87719 54.371 9.5529 54.7075 9.25657 55.5042L6.62592 63.0029L7.7614 63.4012L10.392 55.9026C10.6734 55.1006 10.6192 54.6313 10.2295 54.4946ZM14.0294 55.8276C13.6621 55.6988 13.3378 56.0354 13.0565 56.8373L10.4258 64.3359L11.5276 64.7224L14.1582 57.2238C14.4396 56.4219 14.3966 55.9565 14.0294 55.8276Z" fill="#FFF2CA"/>
<path d="M27.5303 39.3253L19.4008 51.789L10.31 45.8595L18.4395 33.3958L20.8045 34.9383L14.2241 45.0271L15.232 45.6845L20.3609 37.8211L22.7259 39.3636L17.597 47.2271L18.5749 47.865L25.1553 37.7762L27.5303 39.3253Z" fill="#FFF2CA"/>
<path d="M40.1557 26.9796L29.309 37.1669L21.8785 29.2555L32.7252 19.0681L34.6583 21.1263L25.8784 29.3725L26.7022 30.2496L33.5455 23.8223L35.4785 25.8805L28.6353 32.3078L29.4346 33.1588L38.2145 24.9127L40.1557 26.9796Z" fill="#FFF2CA"/>
<path d="M52.2276 11.9726C53.0022 13.3413 52.8851 14.7309 51.8763 16.1414L54.9458 18.2511L52.1877 19.812L49.7047 18.1097C49.6356 18.1488 47.6551 19.2696 43.7634 21.4721L45.0837 23.805L42.616 25.2016L37.2584 15.735L45.5016 11.0699C46.7182 10.3813 47.9327 10.0682 49.1452 10.1303C50.5429 10.1972 51.5704 10.8113 52.2276 11.9726ZM49.7702 13.3633C49.559 12.9901 49.0974 12.868 48.3856 12.997C47.861 13.1022 47.3672 13.2859 46.904 13.548L41.1287 16.8165L42.3668 19.0043L48.1215 15.7475C48.5984 15.4776 49.0151 15.1414 49.3714 14.739C49.8524 14.2021 49.9854 13.7435 49.7702 13.3633Z" fill="#FFF2CA"/>
<path d="M66.9562 5.18847C66.8175 4.46973 66.8184 3.87316 66.9588 3.39877C67.1121 2.90533 67.3699 2.52425 67.7322 2.25555C68.1105 1.98376 68.5472 1.8001 69.0424 1.70457C69.5375 1.60904 70.0032 1.61859 70.4395 1.73322C70.8758 1.84784 71.2569 2.10565 71.5827 2.50665C71.9055 2.89167 72.1362 3.44356 72.2749 4.1623C72.4105 4.86507 72.4016 5.46318 72.2483 5.95663C72.092 6.4341 71.8342 6.81517 71.4749 7.09985C71.1126 7.36855 70.6839 7.55067 70.1887 7.6462C69.6936 7.74173 69.2199 7.73372 68.7676 7.62218C68.3283 7.49158 67.9472 7.23377 67.6244 6.84874C67.3145 6.44467 67.0918 5.89124 66.9562 5.18847Z" fill="#FFF2CA"/>
</svg>
