<svg width="170" height="170" viewBox="0 0 170 170" fill="none" xmlns="http://www.w3.org/2000/svg">
<path d="M101.709 7.85208C101.528 9.40637 100.87 10.6334 99.7345 11.533C98.5986 12.4327 97.2575 12.7929 95.7111 12.6135L86.3025 11.5218C86.719 7.93197 86.9273 6.13705 86.9273 6.13705C86.9273 6.13705 87.136 4.33818 87.5534 0.740439L96.962 1.83207C98.5084 2.01149 99.7314 2.66914 100.631 3.80501C101.531 4.94088 101.89 6.2899 101.709 7.85208ZM98.904 7.52665C98.9955 6.73767 98.8311 6.08692 98.4108 5.57438C97.9994 5.05488 97.4 4.74146 96.6129 4.63414L90.0446 3.87206L89.446 9.03198L96.0142 9.79406C96.805 9.86982 97.4593 9.70985 97.9769 9.31414C98.5025 8.91935 98.8115 8.32352 98.904 7.52665Z" fill="#FEC417"/>
<path d="M105.839 14.8866L103.104 14.1399L105.968 3.64631L108.704 4.39305L105.839 14.8866Z" fill="#FEC417"/>
<path d="M123.329 18.2698C122.929 19.161 122.298 19.7702 121.437 20.0974C120.576 20.4246 119.703 20.3896 118.82 19.9925L109.039 15.5984L110.201 13.0119L119.96 17.3962C120.329 17.5622 120.594 17.4677 120.753 17.1127C120.913 16.7577 120.808 16.4972 120.438 16.3312L113.113 13.0405C112.237 12.6467 111.631 12.0176 111.297 11.1533C110.962 10.2891 110.999 9.40414 111.405 8.49849C111.806 7.60734 112.438 7.00341 113.303 6.68671C114.172 6.36277 115.044 6.39771 115.921 6.79156L125.713 11.1906L124.555 13.7662L114.785 9.37697C114.416 9.21097 114.151 9.30548 113.992 9.66049C113.823 10.0372 113.923 10.3086 114.292 10.4746L121.617 13.7653C122.501 14.1624 123.107 14.7915 123.434 15.6525C123.764 16.5062 123.729 17.3787 123.329 18.2698Z" fill="#FEC417"/>
<path d="M141.542 22.4948L139.82 24.732L132.863 19.3747C132.24 18.8949 131.594 18.6985 130.926 18.7853C130.262 18.8658 129.688 19.2207 129.203 19.85C128.724 20.473 128.53 21.1156 128.621 21.7776C128.713 22.4397 129.07 23.0106 129.693 23.4903L136.65 28.8476L134.92 31.0943L127.963 25.737C126.724 24.7823 126.007 23.5841 125.814 22.1423C125.621 20.7005 126.002 19.3597 126.957 18.12C127.916 16.874 129.118 16.16 130.561 15.9782C132.004 15.7964 133.346 16.1828 134.585 17.1375L141.542 22.4948Z" fill="#FEC417"/>
<path d="M151.981 42.9332C150.754 43.9043 149.421 44.3061 147.982 44.1387C146.543 43.9712 145.337 43.274 144.366 42.0471L140.358 36.9839C139.387 35.7571 138.983 34.4208 139.146 32.9753C139.308 31.5298 140.003 30.3214 141.23 29.3503C142.463 28.3742 143.801 27.9731 145.246 28.1468C146.69 28.3205 147.898 29.0207 148.869 30.2476L152.877 35.3108C153.848 36.5377 154.249 37.8708 154.082 39.3101C153.915 40.7494 153.214 41.9571 151.981 42.9332ZM150.229 40.7192C150.851 40.2262 151.196 39.6499 151.261 38.9903C151.338 38.3321 151.133 37.6835 150.648 37.0446L146.655 32.0001C146.144 31.3809 145.56 31.0331 144.902 30.9565C144.25 30.875 143.612 31.0807 142.99 31.5736C142.361 32.0715 142.011 32.6472 141.941 33.3005C141.87 33.9539 142.084 34.595 142.582 35.2241L146.575 40.2686C147.073 40.8976 147.648 41.2529 148.3 41.3344C148.957 41.4221 149.6 41.2171 150.229 40.7192Z" fill="#FEC417"/>
<path d="M165.519 59.1421L152.483 56.4833L151.857 55.0534L158.752 43.6752L160.151 46.8734L155.752 54.2075L164.119 55.9439L165.519 59.1421Z" fill="#FEC417"/>
<path d="M158.568 80.2517L156.098 65.5774L166.801 63.776L169.271 78.4503L166.487 78.9189L164.487 67.0409L163.301 67.2406L164.859 76.4987L162.075 76.9673L160.516 67.7092L159.365 67.903L161.364 79.7811L158.568 80.2517Z" fill="#FEC417"/>
<path d="M164.364 98.7391C162.796 98.6252 161.704 97.7575 161.089 96.136L157.632 97.5214L157.861 94.3606L160.654 93.2375C160.66 93.1583 160.825 90.8887 161.149 86.4287L158.476 86.2345L158.681 83.4064L169.53 84.1946L168.844 93.6413C168.742 95.0356 168.33 96.2201 167.606 97.1948C166.776 98.321 165.695 98.8358 164.364 98.7391ZM164.569 95.9229C164.996 95.954 165.354 95.6375 165.641 94.9735C165.844 94.4786 165.965 93.9658 166.004 93.435L166.484 86.8163L163.977 86.6342L163.498 93.2291C163.458 93.7757 163.507 94.3088 163.645 94.8285C163.825 95.5265 164.133 95.8913 164.569 95.9229Z" fill="#FEC417"/>
<path d="M155.257 127.05L157.857 121.612L150.613 118.147L151.831 115.6L159.076 119.064L161.676 113.626L164.245 114.854L157.825 128.279L155.257 127.05Z" fill="#FEC417"/>
<path d="M137.409 137.178L139.179 134.978L141.268 136.659L147.048 129.474L144.96 127.794L146.737 125.584L155.212 132.403L153.435 134.612L149.257 131.252L143.477 138.436L147.654 141.797L145.884 143.997L137.409 137.178Z" fill="#FEC417"/>
<path d="M123.802 148.029L135.605 138.968L142.215 147.577L130.411 156.639L128.692 154.399L138.246 147.064L137.513 146.109L130.067 151.826L128.347 149.587L135.794 143.87L135.083 142.943L125.529 150.279L123.802 148.029Z" fill="#FEC417"/>
<path d="M99.9789 165.738L109.048 163.132C109.788 162.919 110.324 162.525 110.654 161.951C110.987 161.384 111.056 160.732 110.861 159.995L101.838 162.588L101.048 159.84L110.071 157.247L109.337 154.693L112.062 153.91L113.56 159.12C113.994 160.631 113.861 162.021 113.159 163.289C112.457 164.556 111.347 165.409 109.828 165.845L100.759 168.452L99.9789 165.738Z" fill="#FEC417"/>
<path d="M80.8447 159.013L83.6648 158.871L83.6954 159.478C84.5397 159.03 85.3902 158.784 86.2469 158.741L90.2688 158.538C91.8315 158.46 93.154 158.902 94.2364 159.866C95.3188 160.829 95.8997 162.1 95.9791 163.679L96.2523 169.105L93.4203 169.247L93.1484 163.845C93.108 163.044 92.8421 162.421 92.3505 161.976C91.8589 161.532 91.2125 161.33 90.4113 161.37L86.4132 161.572C85.62 161.611 85.0011 161.877 84.5566 162.369C84.1042 162.861 83.8978 163.499 83.9373 164.285L84.2105 169.711L81.3904 169.853L80.8447 159.013Z" fill="#FEC417"/>
<path d="M63.2731 164.148L69.2077 165.207L70.6192 157.302L73.3989 157.799L71.9874 165.704L77.9221 166.763L77.4215 169.567L62.7726 166.951L63.2731 164.148Z" fill="#FEC417"/>
<path d="M48.7683 149.644L51.3583 150.769L51.1163 151.326C52.0718 151.3 52.9429 151.457 53.7297 151.799L57.4235 153.403C58.8587 154.026 59.8474 155.01 60.3896 156.353C60.9317 157.697 60.888 159.094 60.2585 160.544L58.0945 165.527L55.4936 164.398L57.6481 159.436C57.9676 158.7 58.0058 158.024 57.7626 157.408C57.5194 156.791 57.0299 156.323 56.294 156.004L52.6222 154.409C51.8936 154.093 51.2211 154.056 50.6046 154.299C49.9808 154.54 49.5123 155.02 49.1991 155.741L47.0352 160.725L44.4452 159.6L48.7683 149.644Z" fill="#FEC417"/>
<path d="M30.4278 144.564C31.3794 143.312 32.7024 142.871 34.3966 143.24L35.123 139.587L37.6461 141.505L37.0623 144.459C37.1255 144.507 38.9372 145.884 42.4973 148.59L44.1194 146.456L46.3769 148.171L39.7945 156.831L32.2539 151.1C31.141 150.254 30.3737 149.262 29.9521 148.123C29.4617 146.812 29.6203 145.626 30.4278 144.564ZM32.6757 146.272C32.4162 146.614 32.4862 147.086 32.8858 147.689C33.1896 148.13 33.5533 148.511 33.977 148.833L39.2601 152.849L40.7814 150.847L35.5172 146.846C35.0808 146.514 34.6075 146.264 34.097 146.096C33.4138 145.866 32.9401 145.925 32.6757 146.272Z" fill="#FEC417"/>
<path d="M23.308 125.863L32.6919 137.412L24.2684 144.257L14.8844 132.708L17.0758 130.927L24.6717 140.275L25.6056 139.517L19.6852 132.23L21.8766 130.45L27.797 137.736L28.7031 137L21.1073 127.652L23.308 125.863Z" fill="#FEC417"/>
<path d="M6.9746 99.738C8.47473 99.293 9.86162 99.4161 11.1353 100.107C12.4089 100.798 13.2682 101.894 13.7132 103.394L15.5494 109.585C15.9943 111.085 15.8724 112.475 15.1837 113.757C14.495 115.038 13.4006 115.901 11.9005 116.346C10.3927 116.793 9.00089 116.667 7.72496 115.969C6.44904 115.27 5.58862 114.171 5.14369 112.671L3.3075 106.48C2.86257 104.98 2.98559 103.593 3.67655 102.319C4.36752 101.046 5.46687 100.185 6.9746 99.738ZM7.77751 102.445C7.01603 102.671 6.48221 103.078 6.17606 103.666C5.86004 104.248 5.80847 104.926 6.02135 105.7L7.85076 111.868C8.0941 112.632 8.50704 113.173 9.08956 113.489C9.66448 113.807 10.3327 113.853 11.0942 113.627C11.8633 113.399 12.402 112.995 12.7104 112.415C13.0188 111.835 13.059 111.16 12.8309 110.391L11.0015 104.223C10.7733 103.454 10.3718 102.91 9.79692 102.592C9.21974 102.266 8.54661 102.217 7.77751 102.445Z" fill="#FEC417"/>
<path d="M3.25595 80.9369L3.7336 92.9725L6.24549 92.8728L5.8732 83.4919L8.73033 83.3786L9.10262 92.7594L11.7574 92.6541L11.8698 95.4874L1.02463 95.9178L0.434542 81.0489L3.25595 80.9369Z" fill="#FEC417"/>
<path d="M14.8482 52.9187C15.86 53.2737 16.5237 53.961 16.8393 54.9808C17.1239 55.8971 17.0835 56.8762 16.718 57.918L13.1487 68.0923L2.90692 64.4993L6.47624 54.325C6.84171 53.2832 7.41804 52.4922 8.20523 51.9518C9.10377 51.358 10.0515 51.2359 11.0483 51.5856C11.7903 51.8459 12.3524 52.283 12.7347 52.8969C13.4092 52.6538 14.1137 52.661 14.8482 52.9187ZM10.1135 54.2501C9.76129 54.1265 9.437 54.463 9.14067 55.2597L6.51002 62.7584L7.64549 63.1567L10.2761 55.6581C10.5575 54.8561 10.5033 54.3868 10.1135 54.2501ZM13.9135 55.5831C13.5462 55.4543 13.2219 55.7909 12.9406 56.5928L10.3099 64.0914L11.4117 64.4779L14.0423 56.9793C14.3237 56.1774 14.2807 55.712 13.9135 55.5831Z" fill="#FEC417"/>
<path d="M27.4147 39.0808L19.2852 51.5445L10.1944 45.615L18.3239 33.1512L20.6889 34.6938L14.1085 44.7826L15.1164 45.44L20.2453 37.5765L22.6103 39.1191L17.4814 46.9826L18.4593 47.6204L25.0397 37.5317L27.4147 39.0808Z" fill="#FEC417"/>
<path d="M40.0399 26.7351L29.1932 36.9224L21.7627 29.011L32.6094 18.8236L34.5425 20.8818L25.7626 29.128L26.5864 30.0051L33.4297 23.5778L35.3627 25.636L28.5195 32.0633L29.3188 32.9143L38.0987 24.6682L40.0399 26.7351Z" fill="#FEC417"/>
<path d="M52.1114 11.7281C52.886 13.0968 52.7689 14.4864 51.7601 15.8969L54.8296 18.0066L52.0715 19.5675L49.5885 17.8651C49.5194 17.9043 47.5389 19.0251 43.6472 21.2275L44.9675 23.5605L42.4998 24.9571L37.1422 15.4904L45.3854 10.8253C46.602 10.1368 47.8165 9.82365 49.029 9.88582C50.4267 9.9527 51.4542 10.5668 52.1114 11.7281ZM49.654 13.1188C49.4428 12.7455 48.9812 12.6234 48.2694 12.7525C47.7448 12.8577 47.251 13.0414 46.7878 13.3035L41.0124 16.572L42.2506 18.7598L48.0053 15.503C48.4822 15.2331 48.8989 14.8969 49.2552 14.4944C49.7362 13.9575 49.8692 13.499 49.654 13.1188Z" fill="#FEC417"/>
<path d="M66.8405 4.94398C66.7019 4.22523 66.7027 3.62867 66.8431 3.15428C66.9964 2.66083 67.2542 2.27976 67.6166 2.01106C67.9949 1.73927 68.4316 1.55561 68.9267 1.46008C69.4218 1.36455 69.8876 1.3741 70.3238 1.48873C70.7601 1.60335 71.1412 1.86116 71.4671 2.26216C71.7898 2.64718 72.0206 3.19906 72.1592 3.91781C72.2948 4.62058 72.286 5.21869 72.1327 5.71213C71.9763 6.1896 71.7185 6.57068 71.3592 6.85536C70.9969 7.12406 70.5682 7.30618 70.0731 7.40171C69.5779 7.49724 69.1042 7.48923 68.652 7.37768C68.2126 7.24709 67.8315 6.98928 67.5088 6.60425C67.1989 6.20018 66.9761 5.64675 66.8405 4.94398Z" fill="#FEC417"/>
</svg>
