<svg width="49" height="57" viewBox="0 0 49 57" fill="none" xmlns="http://www.w3.org/2000/svg">
<path d="M32.7127 18.8284C32.7127 14.2424 28.9985 10.5248 24.4169 10.5248C19.8352 10.5248 16.1211 14.2424 16.1211 18.8284V27.9355C16.1211 32.5214 19.8352 36.2391 24.4169 36.2391C28.9985 36.2391 32.7127 32.5214 32.7127 27.9355V18.8284Z" stroke="#FFF2CA" stroke-width="2.67857"/>
<path d="M25.4875 15.8819C25.4875 15.2902 25.0083 14.8105 24.4171 14.8105C23.8259 14.8105 23.3467 15.2902 23.3467 15.8819V19.0962C23.3467 19.6879 23.8259 20.1676 24.4171 20.1676C25.0083 20.1676 25.4875 19.6879 25.4875 19.0962V15.8819Z" fill="#FFF2CA"/>
<path d="M27.6202 43.0655C28.0382 42.6471 28.0382 41.9687 27.6202 41.5502C27.2022 41.1318 26.5244 41.1318 26.1064 41.5502L23.8357 43.8231C23.4176 44.2415 23.4176 44.9199 23.8357 45.3383C24.2537 45.7567 24.9314 45.7567 25.3495 45.3383L27.6202 43.0655Z" fill="#FFF2CA"/>
<path d="M21.4267 43.0655C21.0087 42.6471 21.0087 41.9687 21.4267 41.5502C21.8447 41.1318 22.5225 41.1318 22.9405 41.5502L25.2112 43.8231C25.6292 44.2415 25.6292 44.9199 25.2112 45.3383C24.7932 45.7567 24.1154 45.7567 23.6974 45.3383L21.4267 43.0655Z" fill="#FFF2CA"/>
</svg>
