<svg width="48" height="57" viewBox="0 0 48 57" fill="none" xmlns="http://www.w3.org/2000/svg">
<path d="M32.5962 18.5838C32.5962 13.9979 28.8821 10.2803 24.3004 10.2803C19.7188 10.2803 16.0046 13.9979 16.0046 18.5838V27.691C16.0046 32.2769 19.7188 35.9946 24.3004 35.9946C28.8821 35.9946 32.5962 32.2769 32.5962 27.691V18.5838Z" stroke="#FEC417" stroke-width="2.67857"/>
<path d="M25.3708 15.6374C25.3708 15.0457 24.8916 14.566 24.3004 14.566C23.7092 14.566 23.23 15.0457 23.23 15.6374V18.8517C23.23 19.4434 23.7092 19.9231 24.3004 19.9231C24.8916 19.9231 25.3708 19.4434 25.3708 18.8517V15.6374Z" fill="#FEC417"/>
<path d="M27.5039 42.821C27.9219 42.4026 27.9219 41.7242 27.5039 41.3057C27.0858 40.8873 26.4081 40.8873 25.99 41.3057L23.7193 43.5786C23.3013 43.997 23.3013 44.6754 23.7193 45.0938C24.1374 45.5122 24.8151 45.5122 25.2331 45.0938L27.5039 42.821Z" fill="#FEC417"/>
<path d="M21.3108 42.821C20.8928 42.4026 20.8928 41.7242 21.3108 41.3057C21.7289 40.8873 22.4066 40.8873 22.8247 41.3057L25.0954 43.5786C25.5134 43.997 25.5134 44.6754 25.0954 45.0938C24.6773 45.5122 23.9996 45.5122 23.5816 45.0938L21.3108 42.821Z" fill="#FEC417"/>
</svg>
